<svg viewBox="0 0 960 980" xmlns="http://www.w3.org/2000/svg"
     font-family="Segoe UI, Arial, sans-serif" font-size="12">
  <defs>
    <marker id="arr" markerWidth="8" markerHeight="6" refX="7" refY="3" orient="auto">
      <polygon points="0 0, 8 3, 0 6" fill="#94a3b8"/>
    </marker>
    <marker id="arr-g" markerWidth="8" markerHeight="6" refX="7" refY="3" orient="auto">
      <polygon points="0 0, 8 3, 0 6" fill="#2e9e58"/>
    </marker>
    <marker id="arr-b" markerWidth="8" markerHeight="6" refX="7" refY="3" orient="auto">
      <polygon points="0 0, 8 3, 0 6" fill="#1565a8"/>
    </marker>
  </defs>

  <!-- ─── Background ─────────────────────────────────────────────── -->
  <rect width="960" height="980" fill="#f8fafc"/>

  <!-- ═══════════════════════════════════════════════════════════════
       HEADER
  ═══════════════════════════════════════════════════════════════ -->
  <rect x="0" y="0" width="960" height="52" fill="#1a7a40"/>
  <text x="480" y="22" text-anchor="middle" font-size="16" font-weight="700" fill="#ffffff">
    ClimateWatch — System Architecture
  </text>
  <text x="480" y="42" text-anchor="middle" font-size="11" fill="#a8d8b8">
    Environmental Sensor AI Environment · OpenEnv Specification
  </text>

  <!-- ═══════════════════════════════════════════════════════════════
       BAND 1 — DATA SOURCE
  ═══════════════════════════════════════════════════════════════ -->
  <rect x="0" y="52" width="960" height="18" fill="#f1f5f9"/>
  <text x="16" y="65" font-size="9" font-weight="700" letter-spacing="1.2" fill="#64748b">
    LAYER 1  ·  REAL DATA SOURCE
  </text>

  <!-- Box A: Open-Meteo -->
  <rect x="30" y="78" width="420" height="98" rx="7" fill="#ffffff" stroke="#2e9e58" stroke-width="1.8"/>
  <rect x="30" y="78" width="420" height="28" rx="7" fill="#2e9e58"/>
  <rect x="30" y="94"  width="420" height="12" fill="#2e9e58"/>
  <text x="240" y="97" text-anchor="middle" font-size="11" font-weight="700" fill="#ffffff">
    Open-Meteo Air Quality API
  </text>
  <text x="240" y="122" text-anchor="middle" font-size="10" fill="#374151">
    CAMS / ECMWF — Copernicus Atmosphere Monitoring Service
  </text>
  <text x="240" y="138" text-anchor="middle" font-size="10" fill="#374151">
    Real measured hourly readings · No API key required · Free
  </text>
  <text x="240" y="154" text-anchor="middle" font-size="10" fill="#2e9e58" font-weight="600">
    PM2.5  ·  NO2  ·  O3  ·  SO2  ·  CO  ·  CH4
  </text>
  <text x="240" y="168" text-anchor="middle" font-size="9" fill="#6b7280">
    air-quality-api.open-meteo.com/v1/air-quality
  </text>

  <!-- Box B: Monitoring Locations -->
  <rect x="510" y="78" width="420" height="98" rx="7" fill="#ffffff" stroke="#1565a8" stroke-width="1.8"/>
  <rect x="510" y="78" width="420" height="28" rx="7" fill="#1565a8"/>
  <rect x="510" y="94"  width="420" height="12" fill="#1565a8"/>
  <text x="720" y="97" text-anchor="middle" font-size="11" font-weight="700" fill="#ffffff">
    Real Industrial Monitoring Locations
  </text>
  <text x="720" y="122" text-anchor="middle" font-size="10" fill="#374151">
    Houston TX  ·  Delhi NCR  ·  North Sea  ·  Jubail Saudi Arabia
  </text>
  <text x="720" y="138" text-anchor="middle" font-size="10" fill="#374151">
    Beijing  ·  Chennai  ·  Svalbard  ·  Manaus  ·  Essen  ·  Guangzhou
  </text>
  <text x="720" y="154" text-anchor="middle" font-size="10" fill="#374151">
    Wichita  ·  Tilbury  ·  Ulaanbaatar  ·  San Jose  ·  Novosibirsk
  </text>
  <text x="720" y="168" text-anchor="middle" font-size="9" fill="#6b7280">
    20 locations for Task 1  ·  10 networks for Task 2  ·  5 networks for Task 3
  </text>

  <!-- Fetch annotation -->
  <line x1="480" y1="176" x2="480" y2="206" stroke="#94a3b8" stroke-width="1.4" stroke-dasharray="4,3" marker-end="url(#arr)"/>
  <rect x="340" y="187" width="280" height="16" rx="4" fill="#f1f5f9" stroke="#e2e8f0" stroke-width="1"/>
  <text x="480" y="199" text-anchor="middle" font-size="9" fill="#64748b">
    scripts/fetch_real_data.py  ·  run once  ·  results committed to repo
  </text>

  <!-- ═══════════════════════════════════════════════════════════════
       BAND 2 — CACHED DATA
  ═══════════════════════════════════════════════════════════════ -->
  <rect x="0" y="214" width="960" height="18" fill="#f1f5f9"/>
  <text x="16" y="227" font-size="9" font-weight="700" letter-spacing="1.2" fill="#64748b">
    LAYER 2  ·  CACHED REAL DATA  (app/data/)
  </text>

  <!-- real_task1.json -->
  <rect x="30" y="240" width="280" height="86" rx="7" fill="#ffffff" stroke="#2e9e58" stroke-width="1.5"/>
  <rect x="30" y="240" width="280" height="24" rx="7" fill="#e8f5ee"/>
  <rect x="30" y="252" width="280" height="12" fill="#e8f5ee"/>
  <text x="170" y="257" text-anchor="middle" font-size="10" font-weight="700" fill="#1a7a40">
    real_task1.json
  </text>
  <text x="170" y="279" text-anchor="middle" font-size="10" fill="#374151">20 scenarios  ·  24-hour readings</text>
  <text x="170" y="294" text-anchor="middle" font-size="10" fill="#374151">PM2.5 / NO2 / O3 / SO2 / CO / CH4</text>
  <text x="170" y="309" text-anchor="middle" font-size="9"  fill="#6b7280">20 global industrial locations</text>
  <text x="170" y="320" text-anchor="middle" font-size="9"  fill="#6b7280">~48 KB</text>

  <!-- real_task2.json -->
  <rect x="340" y="240" width="280" height="86" rx="7" fill="#ffffff" stroke="#b45d00" stroke-width="1.5"/>
  <rect x="340" y="240" width="280" height="24" rx="7" fill="#fef3e8"/>
  <rect x="340" y="252" width="280" height="12" fill="#fef3e8"/>
  <text x="480" y="257" text-anchor="middle" font-size="10" font-weight="700" fill="#b45d00">
    real_task2.json
  </text>
  <text x="480" y="279" text-anchor="middle" font-size="10" fill="#374151">10 network scenarios  ·  7-day data</text>
  <text x="480" y="294" text-anchor="middle" font-size="10" fill="#374151">5 sensors  ·  daily means per sensor</text>
  <text x="480" y="309" text-anchor="middle" font-size="9"  fill="#6b7280">10 industrial network locations</text>
  <text x="480" y="320" text-anchor="middle" font-size="9"  fill="#6b7280">~32 KB</text>

  <!-- real_task3.json -->
  <rect x="650" y="240" width="280" height="86" rx="7" fill="#ffffff" stroke="#c0323e" stroke-width="1.5"/>
  <rect x="650" y="240" width="280" height="24" rx="7" fill="#fef0f0"/>
  <rect x="650" y="252" width="280" height="12" fill="#fef0f0"/>
  <text x="790" y="257" text-anchor="middle" font-size="10" font-weight="700" fill="#c0323e">
    real_task3.json
  </text>
  <text x="790" y="279" text-anchor="middle" font-size="10" fill="#374151">5 cascade network scenarios</text>
  <text x="790" y="294" text-anchor="middle" font-size="10" fill="#374151">10 sensors  ·  30-day status timelines</text>
  <text x="790" y="309" text-anchor="middle" font-size="9"  fill="#6b7280">Kuwait · Texas · Beijing · Chennai · N.Sea</text>
  <text x="790" y="320" text-anchor="middle" font-size="9"  fill="#6b7280">~85 KB</text>

  <!-- Arrows Layer 2 → Layer 3 -->
  <line x1="170" y1="326" x2="170" y2="386" stroke="#2e9e58" stroke-width="1.4" marker-end="url(#arr-g)"/>
  <line x1="480" y1="326" x2="480" y2="386" stroke="#b45d00" stroke-width="1.4" marker-end="url(#arr)"/>
  <line x1="790" y1="326" x2="790" y2="386" stroke="#c0323e" stroke-width="1.4" marker-end="url(#arr)"/>

  <!-- ═══════════════════════════════════════════════════════════════
       BAND 3 — TASK ENGINE
  ═══════════════════════════════════════════════════════════════ -->
  <rect x="0" y="376" width="960" height="18" fill="#f1f5f9"/>
  <text x="16" y="389" font-size="9" font-weight="700" letter-spacing="1.2" fill="#64748b">
    LAYER 3  ·  FAULT INJECTION ENGINE  (real baseline + deterministic fault injection)
  </text>

  <!-- Task 1 -->
  <rect x="30" y="402" width="280" height="132" rx="7" fill="#ffffff" stroke="#2e9e58" stroke-width="2"/>
  <rect x="30" y="402" width="280" height="28" rx="7" fill="#2e9e58"/>
  <rect x="30" y="418" width="280" height="12" fill="#2e9e58"/>
  <text x="170" y="421" text-anchor="middle" font-size="11" font-weight="700" fill="#ffffff">
    Task 1  ·  Single Sensor Detect
  </text>
  <rect x="264" y="406" width="38" height="16" rx="3" fill="#d4f0df"/>
  <text x="283" y="418" text-anchor="middle" font-size="8" font-weight="700" fill="#1a7a40">EASY</text>
  <text x="170" y="446" text-anchor="middle" font-size="10" fill="#374151">
    Real 24-hour baseline readings
  </text>
  <text x="170" y="461" text-anchor="middle" font-size="10" fill="#374151">
    Fault injection: outlier · stuck · missing
  </text>
  <text x="170" y="476" text-anchor="middle" font-size="10" fill="#374151">
    drift · spike · bias
  </text>
  <text x="170" y="493" text-anchor="middle" font-size="10" fill="#374151">
    Grader: F1 score + calibration bonus
  </text>
  <text x="170" y="510" text-anchor="middle" font-size="9" fill="#6b7280">
    20 scenarios  ·  seed % 20
  </text>
  <text x="170" y="526" text-anchor="middle" font-size="9" fill="#6b7280">
    Score: 0.0 – 1.0
  </text>

  <!-- Task 2 -->
  <rect x="340" y="402" width="280" height="132" rx="7" fill="#ffffff" stroke="#b45d00" stroke-width="2"/>
  <rect x="340" y="402" width="280" height="28" rx="7" fill="#b45d00"/>
  <rect x="340" y="418" width="280" height="12" fill="#b45d00"/>
  <text x="480" y="421" text-anchor="middle" font-size="11" font-weight="700" fill="#ffffff">
    Task 2  ·  Multi-Sensor Cleaning
  </text>
  <rect x="572" y="406" width="42" height="16" rx="3" fill="#fdebd0"/>
  <text x="593" y="418" text-anchor="middle" font-size="8" font-weight="700" fill="#b45d00">MEDIUM</text>
  <text x="480" y="446" text-anchor="middle" font-size="10" fill="#374151">
    Real 7-day data  ·  5 sensors per network
  </text>
  <text x="480" y="461" text-anchor="middle" font-size="10" fill="#374151">
    Fault injection per sensor:
  </text>
  <text x="480" y="476" text-anchor="middle" font-size="10" fill="#374151">
    drift · bias · noise · missing · stuck
  </text>
  <text x="480" y="493" text-anchor="middle" font-size="10" fill="#374151">
    Grader: 60% fault + 40% fix accuracy
  </text>
  <text x="480" y="510" text-anchor="middle" font-size="9" fill="#6b7280">
    10 scenarios  ·  seed % 10
  </text>
  <text x="480" y="526" text-anchor="middle" font-size="9" fill="#6b7280">
    Score: 0.0 – 1.0
  </text>

  <!-- Task 3 -->
  <rect x="650" y="402" width="280" height="132" rx="7" fill="#ffffff" stroke="#c0323e" stroke-width="2"/>
  <rect x="650" y="402" width="280" height="28" rx="7" fill="#c0323e"/>
  <rect x="650" y="418" width="280" height="12" fill="#c0323e"/>
  <text x="790" y="421" text-anchor="middle" font-size="11" font-weight="700" fill="#ffffff">
    Task 3  ·  Cascade Failure Audit
  </text>
  <rect x="886" y="406" width="38" height="16" rx="3" fill="#fad4d8"/>
  <text x="905" y="418" text-anchor="middle" font-size="8" font-weight="700" fill="#c0323e">HARD</text>
  <text x="790" y="446" text-anchor="middle" font-size="10" fill="#374151">
    Real 30-day data  ·  10-sensor network
  </text>
  <text x="790" y="461" text-anchor="middle" font-size="10" fill="#374151">
    Reference sensors offline
  </text>
  <text x="790" y="476" text-anchor="middle" font-size="10" fill="#374151">
    Dependents marked corrupted (cascade)
  </text>
  <text x="790" y="493" text-anchor="middle" font-size="10" fill="#374151">
    4-part grader (root cause, order, window, compliance)
  </text>
  <text x="790" y="510" text-anchor="middle" font-size="9" fill="#6b7280">
    5 scenarios  ·  seed % 5
  </text>
  <text x="790" y="526" text-anchor="middle" font-size="9" fill="#6b7280">
    Score: 0.0 – 1.0
  </text>

  <!-- Arrows Layer 3 → Layer 4 -->
  <line x1="170" y1="534" x2="380" y2="604" stroke="#94a3b8" stroke-width="1.4" marker-end="url(#arr)"/>
  <line x1="480" y1="534" x2="480" y2="604" stroke="#94a3b8" stroke-width="1.4" marker-end="url(#arr)"/>
  <line x1="790" y1="534" x2="580" y2="604" stroke="#94a3b8" stroke-width="1.4" marker-end="url(#arr)"/>

  <!-- ═══════════════════════════════════════════════════════════════
       BAND 4 — FASTAPI SERVER
  ═══════════════════════════════════════════════════════════════ -->
  <rect x="0" y="594" width="960" height="18" fill="#f1f5f9"/>
  <text x="16" y="607" font-size="9" font-weight="700" letter-spacing="1.2" fill="#64748b">
    LAYER 4  ·  FASTAPI SERVER  (port 7860  ·  Docker  ·  HuggingFace Spaces)
  </text>

  <rect x="30" y="620" width="900" height="118" rx="7" fill="#ffffff" stroke="#1565a8" stroke-width="2"/>
  <rect x="30" y="620" width="900" height="28" rx="7" fill="#1565a8"/>
  <rect x="30" y="636" width="900" height="12" fill="#1565a8"/>
  <text x="480" y="639" text-anchor="middle" font-size="12" font-weight="700" fill="#ffffff">
    ClimateWatch Environment Server  ·  app/main.py
  </text>

  <!-- Endpoint pills — row 1 -->
  <rect x="50"  y="658" width="118" height="22" rx="5" fill="#e8f5ee" stroke="#2e9e58" stroke-width="1.2"/>
  <text x="109" y="673" text-anchor="middle" font-size="9.5" font-weight="700" fill="#1a7a40">POST  /reset</text>

  <rect x="178" y="658" width="118" height="22" rx="5" fill="#e8f5ee" stroke="#2e9e58" stroke-width="1.2"/>
  <text x="237" y="673" text-anchor="middle" font-size="9.5" font-weight="700" fill="#1a7a40">POST  /step</text>

  <rect x="306" y="658" width="118" height="22" rx="5" fill="#dce8f8" stroke="#1565a8" stroke-width="1.2"/>
  <text x="365" y="673" text-anchor="middle" font-size="9.5" font-weight="700" fill="#1565a8">GET  /state</text>

  <rect x="434" y="658" width="118" height="22" rx="5" fill="#dce8f8" stroke="#1565a8" stroke-width="1.2"/>
  <text x="493" y="673" text-anchor="middle" font-size="9.5" font-weight="700" fill="#1565a8">GET  /health</text>

  <rect x="562" y="658" width="118" height="22" rx="5" fill="#dce8f8" stroke="#1565a8" stroke-width="1.2"/>
  <text x="621" y="673" text-anchor="middle" font-size="9.5" font-weight="700" fill="#1565a8">GET  /tasks</text>

  <rect x="690" y="658" width="118" height="22" rx="5" fill="#fdebd0" stroke="#b45d00" stroke-width="1.2"/>
  <text x="749" y="673" text-anchor="middle" font-size="9.5" font-weight="700" fill="#b45d00">POST  /grader</text>

  <rect x="818" y="658" width="102" height="22" rx="5" fill="#fdebd0" stroke="#b45d00" stroke-width="1.2"/>
  <text x="869" y="673" text-anchor="middle" font-size="9.5" font-weight="700" fill="#b45d00">POST  /baseline</text>

  <!-- Reward rules -->
  <text x="480" y="703" text-anchor="middle" font-size="9.5" fill="#374151">
    Reward per step  ·  partial credit  ·  anti-loop penalty -0.30  ·  always clamped to [0.0, 1.0]
  </text>
  <text x="480" y="720" text-anchor="middle" font-size="9.5" fill="#374151">
    Max 5 steps per episode  ·  early stop at score >= 0.80  ·  thread-safe (RLock)
  </text>
  <text x="480" y="730" text-anchor="middle" font-size="9" fill="#6b7280">
    Interactive dashboard at GET /  ·  Swagger UI at GET /docs
  </text>

  <!-- Arrows Layer 4 → Layer 5 -->
  <line x1="200" y1="738" x2="170" y2="800" stroke="#94a3b8" stroke-width="1.4" marker-end="url(#arr)"/>
  <line x1="480" y1="738" x2="480" y2="800" stroke="#94a3b8" stroke-width="1.4" marker-end="url(#arr)"/>
  <line x1="760" y1="738" x2="790" y2="800" stroke="#94a3b8" stroke-width="1.4" marker-end="url(#arr)"/>

  <!-- ═══════════════════════════════════════════════════════════════
       BAND 5 — CLIENTS
  ═══════════════════════════════════════════════════════════════ -->
  <rect x="0" y="790" width="960" height="18" fill="#f1f5f9"/>
  <text x="16" y="803" font-size="9" font-weight="700" letter-spacing="1.2" fill="#64748b">
    LAYER 5  ·  CLIENTS
  </text>

  <!-- Evaluation Agent -->
  <rect x="30" y="816" width="280" height="120" rx="7" fill="#ffffff" stroke="#c0323e" stroke-width="1.8"/>
  <rect x="30" y="816" width="280" height="26" rx="7" fill="#c0323e"/>
  <rect x="30" y="830" width="280" height="12" fill="#c0323e"/>
  <text x="170" y="833" text-anchor="middle" font-size="11" font-weight="700" fill="#ffffff">
    Evaluation Agent
  </text>
  <text x="170" y="860" text-anchor="middle" font-size="10" fill="#374151">Calls POST /reset</text>
  <text x="170" y="875" text-anchor="middle" font-size="10" fill="#374151">Calls POST /step (multiple times)</text>
  <text x="170" y="890" text-anchor="middle" font-size="10" fill="#374151">Calls POST /grader for final score</text>
  <text x="170" y="908" text-anchor="middle" font-size="9" fill="#6b7280">Frontier LLM agent (Nemotron / GPT-4)</text>
  <text x="170" y="922" text-anchor="middle" font-size="9" fill="#6b7280">Brings its own model — no setup needed</text>

  <!-- Web Dashboard -->
  <rect x="340" y="816" width="280" height="120" rx="7" fill="#ffffff" stroke="#2e9e58" stroke-width="1.8"/>
  <rect x="340" y="816" width="280" height="26" rx="7" fill="#2e9e58"/>
  <rect x="340" y="830" width="280" height="12" fill="#2e9e58"/>
  <text x="480" y="833" text-anchor="middle" font-size="11" font-weight="700" fill="#ffffff">
    Web Dashboard  (GET /)
  </text>
  <text x="480" y="860" text-anchor="middle" font-size="10" fill="#374151">Real sensor data tables with live values</text>
  <text x="480" y="875" text-anchor="middle" font-size="10" fill="#374151">Inline bar charts for reading levels</text>
  <text x="480" y="890" text-anchor="middle" font-size="10" fill="#374151">Dependency graph and compliance status</text>
  <text x="480" y="908" text-anchor="middle" font-size="9" fill="#6b7280">Live episode score meter in sidebar</text>
  <text x="480" y="922" text-anchor="middle" font-size="9" fill="#6b7280">No emojis · white professional theme</text>

  <!-- inference.py -->
  <rect x="650" y="816" width="280" height="120" rx="7" fill="#ffffff" stroke="#7a3a9a" stroke-width="1.8"/>
  <rect x="650" y="816" width="280" height="26" rx="7" fill="#7a3a9a"/>
  <rect x="650" y="830" width="280" height="12" fill="#7a3a9a"/>
  <text x="790" y="833" text-anchor="middle" font-size="11" font-weight="700" fill="#ffffff">
    inference.py  (Baseline Agent)
  </text>
  <text x="790" y="860" text-anchor="middle" font-size="10" fill="#374151">OpenAI client → HuggingFace Router</text>
  <text x="790" y="875" text-anchor="middle" font-size="10" fill="#374151">meta-llama/Llama-3.3-70B-Instruct</text>
  <text x="790" y="890" text-anchor="middle" font-size="10" fill="#374151">temperature=0.0 · reproducible scores</text>
  <text x="790" y="908" text-anchor="middle" font-size="9" fill="#6b7280">Runs all 3 tasks · prints final scores</text>
  <text x="790" y="922" text-anchor="middle" font-size="9" fill="#6b7280">Runtime under 20 minutes</text>

  <!-- ─── Legend ─────────────────────────────────────────────────── -->
  <rect x="30" y="948" width="12" height="12" rx="2" fill="#2e9e58"/>
  <text x="48" y="959" font-size="9" fill="#374151">Real data / environment layer</text>

  <rect x="200" y="948" width="12" height="12" rx="2" fill="#1565a8"/>
  <text x="218" y="959" font-size="9" fill="#374151">API server endpoints</text>

  <rect x="360" y="948" width="12" height="12" rx="2" fill="#c0323e"/>
  <text x="378" y="959" font-size="9" fill="#374151">Client / agent</text>

  <rect x="480" y="948" width="12" height="12" rx="2" fill="#7a3a9a"/>
  <text x="498" y="959" font-size="9" fill="#374151">Baseline inference script</text>

  <rect x="640" y="948" width="12" height="12" rx="2" fill="#b45d00"/>
  <text x="658" y="959" font-size="9" fill="#374151">Medium-difficulty elements</text>

</svg>
